<?xml version="1.0" standalone="no"?><!DOCTYPE svg PUBLIC "-//W3C//DTD SVG 1.1//EN" "http://www.w3.org/Graphics/SVG/1.1/DTD/svg11.dtd"><svg t="1623077149750" class="icon" viewBox="0 0 1137 1024" version="1.1" xmlns="http://www.w3.org/2000/svg" p-id="4250" width="142.125" height="128" xmlns:xlink="http://www.w3.org/1999/xlink"><defs><style type="text/css"></style></defs><path d="M1078.043546 259.413686V226.987046a153.030984 153.030984 0 0 0-153.20165-149.333208h-451.697401A165.574973 165.574973 0 0 0 346.481489 0.000569H153.315428A152.94565 152.94565 0 0 0 0 149.049334v725.901617A152.974095 152.974095 0 0 0 153.230095 1023.999716h831.345085a152.94565 152.94565 0 0 0 153.230094-149.048765V376.035811a155.90387 155.90387 0 0 0-59.733284-116.622125z m-153.315428-103.822136a73.016828 73.016828 0 0 1 73.329717 71.395496H573.0413a69.74572 69.74572 0 0 1-66.645278-51.768845l-6.684438-19.626651h424.931201z m126.663006 706.274967a73.016828 73.016828 0 0 1-73.329717 71.395496H146.630989a73.016828 73.016828 0 0 1-73.329717-71.395496V149.049334A75.036382 75.036382 0 0 1 153.315428 77.653838h193.422061a77.966157 77.966157 0 0 1 73.301272 52.053289l19.911095 64.85328a136.248775 136.248775 0 0 0 139.832772 103.822135h398.22189A73.016828 73.016828 0 0 1 1051.334235 369.778039v492.088478z m0 0l-524.913341-103.537691H226.531367a38.855079 38.855079 0 1 0 0 77.653268h299.861083a38.855079 38.855079 0 1 0 0-77.653268z m0 0" p-id="4251"></path></svg>