<?xml version="1.0" standalone="no"?><!DOCTYPE svg PUBLIC "-//W3C//DTD SVG 1.1//EN" "http://www.w3.org/Graphics/SVG/1.1/DTD/svg11.dtd"><svg t="1623077196446" class="icon" viewBox="0 0 1024 1024" version="1.1" xmlns="http://www.w3.org/2000/svg" p-id="4453" xmlns:xlink="http://www.w3.org/1999/xlink" width="128" height="128"><defs><style type="text/css"></style></defs><path d="M839.168 971.776H384.512c-11.264 0-20.48-9.216-20.48-20.48s9.216-20.48 20.48-20.48h454.656c51.2 0 92.672-41.472 92.672-92.16V185.856c0-50.688-41.472-92.16-92.672-92.16H384.512c-51.2 0-92.672 41.472-92.672 92.16v120.832c0 11.264-9.216 20.48-20.48 20.48s-20.48-9.216-20.48-20.48V185.856c0-73.728 59.904-133.12 133.632-133.12h454.656c73.728 0 133.632 59.904 133.632 133.12v652.8c0 73.216-59.904 133.12-133.632 133.12z" fill="#262435" p-id="4454"></path><path d="M654.848 971.776H184.832c-73.728 0-133.632-59.904-133.632-133.12V306.688c0-11.264 9.216-20.48 20.48-20.48h507.904c8.704 0 10.752 2.56 22.528 13.824l21.504 20.992 64.512 64.512c23.552 23.552 47.104 46.592 64.512 64.512l21.504 21.504c11.776 11.776 13.824 14.336 13.824 22.528v344.576c0.512 73.216-59.392 133.12-133.12 133.12zM92.16 327.168v511.488c0 50.688 41.472 92.16 92.672 92.16h470.016c51.2 0 92.672-41.472 92.672-92.16V502.272c-27.648-27.648-147.968-147.456-175.616-175.616H92.16z" fill="#262435" p-id="4455"></path><path d="M768 514.56h-187.904c-11.264 0-20.48-9.216-20.48-20.48V306.688c0-8.192 5.12-15.872 12.8-18.944 7.68-3.072 16.384-1.536 22.528 4.608l187.904 187.392c5.632 5.632 7.68 14.848 4.608 22.528-4.096 7.168-11.264 12.288-19.456 12.288z m-167.424-40.96h117.76l-117.76-117.248v117.248zM494.592 457.728H163.328c-11.264 0-20.48-9.216-20.48-20.48s9.216-20.48 20.48-20.48h331.776c11.264 0 20.48 9.216 20.48 20.48 0 11.776-9.216 20.48-20.992 20.48zM494.592 584.704H163.328c-11.264 0-20.48-9.216-20.48-20.48s9.216-20.48 20.48-20.48h331.776c11.264 0 20.48 9.216 20.48 20.48s-9.216 20.48-20.992 20.48zM684.544 711.68H163.328c-11.264 0-20.48-9.216-20.48-20.48s9.216-20.48 20.48-20.48h521.216c11.264 0 20.48 9.216 20.48 20.48s-9.216 20.48-20.48 20.48zM684.544 838.656H163.328c-11.264 0-20.48-9.216-20.48-20.48s9.216-20.48 20.48-20.48h521.216c11.264 0 20.48 9.216 20.48 20.48s-9.216 20.48-20.48 20.48z" fill="#262435" p-id="4456"></path></svg>