<?xml version="1.0" standalone="no"?><!DOCTYPE svg PUBLIC "-//W3C//DTD SVG 1.1//EN" "http://www.w3.org/Graphics/SVG/1.1/DTD/svg11.dtd"><svg t="1622549896249" class="icon" viewBox="0 0 1553 1024" version="1.1" xmlns="http://www.w3.org/2000/svg" p-id="4532" width="194.125" height="128" xmlns:xlink="http://www.w3.org/1999/xlink"><defs><style type="text/css"></style></defs><path d="M379.586207 1024v-0.971034c-8.73931 0.644414-17.566897 0.971034-26.482759 0.971034-195.010207 0-353.103448-158.093241-353.103448-353.103448 0-191.761655 152.858483-347.824552 343.375448-352.971035C380.115862 136.545103 540.460138 0 732.689655 0c219.392 0 397.241379 177.849379 397.241379 397.241379 0 14.786207-0.812138 29.395862-2.383448 43.758345C1165.876966 424.183172 1208.461241 414.896552 1253.517241 414.896552c163.787034 0 300.137931 136.350897 300.137931 308.965517 0 163.787034-136.350897 300.137931-300.137931 300.137931H379.586207z" fill="#ffffff" p-id="4533" data-spm-anchor-id="a313x.7781069.0.i19" class="selected"></path><path d="M745.931034 105.931034c52.356414 0 102.991448 12.535172 148.48 36.184276a35.310345 35.310345 0 1 1-32.58262 62.64938A250.33269 250.33269 0 0 0 745.931034 176.551724a35.310345 35.310345 0 1 1 0-70.62069zM945.452138 218.994759a35.310345 35.310345 0 0 1 49.69931 4.89931 322.78069 322.78069 0 0 1 32.812138 48.331034 35.310345 35.310345 0 0 1-61.775448 34.215725 252.16 252.16 0 0 0-25.644138-37.755587 35.310345 35.310345 0 0 1 4.908138-49.69931z" fill="#FFFFFF" p-id="4534"></path></svg>